<svg width="170" height="38" viewBox="0 0 170 38" fill="none" xmlns="http://www.w3.org/2000/svg">
<path d="M0.719971 19.2179C0.719971 15.7205 1.22164 12.3522 2.22497 9.11285C3.25697 5.84485 4.8623 2.90652 7.04097 0.297852H10.61C8.6033 2.99252 7.08397 5.95952 6.05197 9.19885C5.04864 12.4382 4.54697 15.7635 4.54697 19.1749C4.54697 22.5002 5.04864 25.7682 6.05197 28.9789C7.08397 32.1609 8.58897 35.0992 10.567 37.7939H7.04097C4.8623 35.2712 3.25697 32.4189 2.22497 29.2369C1.22164 26.0262 0.719971 22.6865 0.719971 19.2179Z" fill="black"/>
<path d="M23.5016 31.6449C29.7366 31.6449 32.9616 27.7749 33.1766 23.4749H29.3066C28.8766 26.9149 26.9416 29.0649 23.5016 29.0649C19.8466 29.0649 16.8366 26.4849 16.8366 20.2499C16.8366 14.0149 19.8466 11.4349 23.5016 11.4349C26.9416 11.4349 28.8766 13.5849 29.3066 17.0249H33.1766C32.9616 12.7249 29.7366 8.85485 23.5016 8.85485C16.4066 8.85485 12.9666 14.0149 12.9666 20.2499C12.9666 26.4849 16.4066 31.6449 23.5016 31.6449Z" fill="black"/>
<path d="M35.7364 9.49985V24.1199C35.7364 29.2369 38.7464 31.6449 43.0464 31.6449C47.7764 31.6449 50.5714 27.0439 50.5714 27.0439V30.9999H54.2264V9.49985H50.5714V21.3249C50.5714 26.4849 47.5614 28.8499 44.1214 28.8499C41.3264 28.8499 39.3914 27.1299 39.3914 23.2599V9.49985H35.7364Z" fill="black"/>
<path d="M57.2364 9.49985V30.9999H60.8914V18.3149C60.8914 14.0149 63.4714 11.6499 66.2664 11.6499C68.6314 11.6499 69.9214 13.3699 69.9214 17.2399V30.9999H73.5764V18.0139C73.7054 13.8859 76.1994 11.6499 78.9514 11.6499C81.5314 11.6499 82.8214 13.3699 82.8214 17.2399V30.9999H86.4764V16.3799C86.4764 11.2629 84.1114 8.85485 80.0264 8.85485C75.6834 8.85485 73.4474 13.1979 73.2754 13.5849C72.5014 10.4029 70.3944 8.85485 67.3414 8.85485C63.0414 8.85485 60.8914 13.3699 60.8914 13.3699V9.49985H57.2364Z" fill="black"/>
<path d="M89.4864 9.49985V24.1199C89.4864 29.2369 92.4964 31.6449 96.7964 31.6449C101.526 31.6449 104.321 27.0439 104.321 27.0439V30.9999H107.976V9.49985H104.321V21.3249C104.321 26.4849 101.311 28.8499 97.8714 28.8499C95.0764 28.8499 93.1414 27.1299 93.1414 23.2599V9.49985H89.4864Z" fill="black"/>
<path d="M114.641 30.9999V3.04985H110.986V30.9999H114.641Z" fill="black"/>
<path d="M117.663 9.49985V24.1199C117.663 29.2369 120.673 31.6449 124.973 31.6449C129.703 31.6449 132.498 27.0439 132.498 27.0439V30.9999H136.153V9.49985H132.498V21.3249C132.498 26.4849 129.488 28.8499 126.048 28.8499C123.253 28.8499 121.318 27.1299 121.318 23.2599V9.49985H117.663Z" fill="black"/>
<path d="M138.303 24.5499C138.303 28.4199 141.098 31.6449 147.763 31.6449C154.213 31.6449 157.223 28.6349 157.223 24.5499C157.223 20.8949 154.428 18.5299 148.408 18.5299C144.753 18.5299 142.603 17.6699 142.603 15.3049C142.603 12.7249 144.538 11.4349 147.763 11.4349C152.063 11.4349 152.708 14.2299 152.708 15.5199H156.363C156.363 13.1549 155.073 8.85485 147.763 8.85485C141.743 8.85485 138.733 11.8649 138.733 15.3049C138.733 19.1749 141.743 21.1099 147.118 21.1099C152.278 21.1099 153.353 23.0449 153.353 24.9799C153.353 26.9149 152.235 29.0649 147.763 29.0649C143.893 29.0649 141.958 27.1299 141.958 24.5499H138.303Z" fill="black"/>
<path d="M169.036 19.2179C169.036 22.6865 168.52 26.0262 167.488 29.2369C166.485 32.4189 164.894 35.2712 162.715 37.7939H159.189C161.167 35.0992 162.658 32.1609 163.661 28.9789C164.693 25.7682 165.209 22.5002 165.209 19.1749C165.209 15.7635 164.693 12.4382 163.661 9.19885C162.658 5.95952 161.153 2.99252 159.146 0.297852H162.715C164.894 2.90652 166.485 5.84485 167.488 9.11285C168.52 12.3522 169.036 15.7205 169.036 19.2179Z" fill="black"/>
</svg>
